<svg class="main-svg" xmlns="http://www.w3.org/2000/svg" xmlns:xlink="http://www.w3.org/1999/xlink" width="700" height="500" style="" viewBox="0 0 700 500"><rect x="0" y="0" width="700" height="500" style="fill: rgb(17, 17, 17); fill-opacity: 1;"/><defs id="defs-4e3144"><g class="clips"><clipPath id="clip4e3144xyplot" class="plotclip"><rect width="540" height="360"/></clipPath><clipPath class="axesclip" id="clip4e3144x"><rect x="80" y="0" width="540" height="500"/></clipPath><clipPath class="axesclip" id="clip4e3144y"><rect x="0" y="60" width="700" height="360"/></clipPath><clipPath class="axesclip" id="clip4e3144xy"><rect x="80" y="60" width="540" height="360"/></clipPath></g><g class="gradients"/></defs><g class="bglayer"/><g class="layer-below"><g class="imagelayer"/><g class="shapelayer"/></g><g class="cartesianlayer"><g class="subplot xy"><g class="layer-subplot"><g class="shapelayer"/><g class="imagelayer"/></g><g class="gridlayer"><g class="x"/><g class="y"/></g><g class="zerolinelayer"/><path class="xlines-below"/><path class="ylines-below"/><g class="overlines-below"/><g class="xaxislayer-below"/><g class="yaxislayer-below"/><g class="overaxes-below"/><g class="plot" transform="translate(80,60)" clip-path="url('#clip4e3144xyplot')"><g class="scatterlayer mlayer"><g class="trace scatter trace51dafc" style="stroke-miterlimit: 2; opacity: 1;"><g class="fills"/><g class="errorbars"/><g class="lines"><path class="js-line" d="M0,47.41L0.64,98.63L1.28,83.45L1.92,56.89L2.56,106.22L3.2,28.43L3.84,79.66L5.12,32.23L5.76,82.51L6.4,77.76L7.05,84.4L8.33,41.72L8.97,75.87L9.61,88.2L10.25,36.02L10.89,50.25L11.53,24.64L12.17,22.74L12.81,37.92L13.45,29.38L14.09,76.81L14.73,23.69L15.37,32.23L16.01,57.84L16.65,95.79L17.29,71.12L17.93,26.54L18.57,96.73L19.21,82.51L19.86,110.02L20.5,36.97L21.14,62.58L21.78,41.72L22.42,94.84L23.7,75.87L24.34,94.84L24.98,91.04L25.62,71.12L26.9,51.2L27.54,27.49L28.82,47.41L29.46,72.07L30.74,108.12L31.38,98.63L32.02,23.69L32.67,107.17L33.95,109.07L34.59,24.64L35.23,108.12L35.87,58.79L36.51,64.48L37.15,96.73L37.79,22.74L38.43,100.53L39.71,40.77L40.35,98.63L40.99,98.63L41.63,39.82L42.27,40.77L42.91,29.38L43.55,59.74L44.19,29.38L44.83,103.38L45.47,45.51L46.12,68.28L46.76,34.13L47.4,40.77L48.04,35.08L49.32,86.3L49.96,21.79L50.6,30.33L51.24,108.12L52.52,23.69L53.16,51.2L53.8,28.43L54.44,109.07L55.08,62.58L55.72,103.38L57,34.13L57.64,110.02L58.93,18.95L59.57,184.01L60.85,130.88L61.49,202.03L62.13,114.76L62.77,184.96L64.05,117.6L64.69,172.62L65.33,183.06L65.97,161.24L66.61,170.73L67.25,132.78L67.89,143.22L68.53,178.32L69.17,182.11L69.81,120.45L71.09,186.85L71.73,115.71L72.38,192.54L73.02,181.16L73.66,160.29L74.3,191.6L74.94,164.09L75.58,157.45L76.22,140.37L76.86,174.52L77.5,170.73L78.14,118.55L78.78,136.58L79.42,187.8L80.7,166.93L81.34,115.71L81.98,18.95L82.62,94.84L83.26,91.04L83.9,98.63L84.54,102.43L85.19,93.89L85.83,101.48L86.47,91.99L87.11,94.84L87.75,87.25L88.39,83.45L89.03,110.96L90.95,42.66L91.59,107.17L92.87,90.09L93.51,106.22L94.15,62.58L94.79,260.84L95.43,270.33L96.07,231.44L96.71,234.28L97.35,291.2L98,258L98.64,259.9L99.28,239.98L99.92,275.07L100.56,232.39L101.2,231.44L101.84,119.5L102.48,204.88L103.12,199.18L103.76,146.06L104.4,121.4L105.04,202.03L105.68,137.53L106.32,190.65L106.96,112.86L107.6,163.14L108.24,173.57L108.88,149.86L109.52,184.01L110.16,151.75L110.8,162.19L111.45,200.13L112.73,141.32L113.37,147.96L114.01,158.39L114.65,119.5L115.29,140.37L115.93,18.95L116.57,84.4L117.21,60.69L117.85,107.17L118.49,52.15L119.13,67.33L119.77,110.96L120.41,111.91L121.05,95.79L121.69,97.68L122.33,55.94L122.97,50.25L123.61,93.89L124.26,108.12L124.9,41.72L126.18,111.91L126.82,110.96L128.1,58.79L128.74,107.17L129.38,100.53L130.02,102.43L130.66,23.69L131.3,36.97L131.94,22.74L132.58,76.81L133.22,32.23L134.5,109.07L135.14,99.58L135.78,91.04L136.42,69.23L137.07,94.84L137.71,161.24L138.35,132.78L138.99,143.22L139.63,184.96L140.27,154.6L140.91,180.21L141.55,124.24L142.19,198.24L142.83,171.68L143.47,147.01L144.11,197.29L144.75,114.76L145.39,165.98L146.03,128.04L146.67,143.22L147.31,127.09L147.95,148.91L148.59,136.58L149.23,97.68L149.87,99.58L150.52,89.15L151.16,104.32L151.8,97.68L152.44,107.17L153.08,55L153.72,19.9L154.36,30.33L155,106.22L155.64,53.1L156.92,76.81L157.56,18.95L158.2,95.79L158.84,90.09L159.48,81.56L160.76,35.08L161.4,22.74L162.04,112.86L162.68,57.84L163.33,83.45L163.97,36.02L164.61,107.17L165.25,45.51L165.89,39.82L166.53,97.68L167.17,31.28L167.81,100.53L168.45,103.38L169.09,80.61L170.37,19.9L171.01,70.17L171.65,49.3L172.29,97.68L172.93,52.15L173.57,106.22L174.21,99.58L174.85,50.25L175.49,20.85L176.13,101.48L177.42,77.76L178.06,166.93L178.7,159.34L179.34,130.88L179.98,144.17L180.62,186.85L181.26,126.14L181.9,142.27L183.18,115.71L183.82,148.91L184.46,116.66L185.1,173.57L185.74,120.45L186.38,127.09L187.02,112.86L187.66,191.6L188.3,114.76L188.94,124.24L189.59,190.65L190.23,202.98L190.87,193.49L191.51,183.06L192.15,142.27L192.79,300.69L193.43,225.75L194.07,246.62L194.71,218.16L195.99,295.94L196.63,257.05L197.27,271.28L197.91,207.72L198.55,285.51L199.19,238.08L199.83,251.36L200.47,232.39L201.11,281.71L201.75,231.44L202.4,294.99L203.04,208.67L203.68,255.15L204.32,108.12L204.96,31.28L205.6,52.15L206.24,111.91L206.88,105.27L207.52,104.32L208.16,51.2L208.8,89.15L210.08,64.48L210.72,67.33L211.36,93.89L212,73.97L212.64,24.64L213.28,69.23L213.92,36.02L214.56,87.25L215.2,82.51L215.85,70.17L216.49,90.09L217.13,37.92L218.41,112.86L219.05,54.05L219.69,51.2L220.33,101.48L220.97,67.33L221.61,184.96L222.25,200.13L222.89,189.7L223.53,143.22L224.17,156.5L225.45,121.4L226.09,150.81L226.73,134.68L227.37,301.63L228.01,284.56L228.66,242.82L229.3,210.57L229.94,283.61L231.22,209.62L231.86,250.41L232.5,295.94L233.14,259.9L233.78,266.54L234.42,237.13L235.06,236.18L235.7,228.59L236.34,40.77L236.98,73.97L238.26,24.64L238.9,41.72L239.54,28.43L240.18,112.86L241.47,42.66L242.11,112.86L242.75,63.53L243.39,126.14L244.67,198.24L245.31,115.71L245.95,122.35L246.59,187.8L247.23,169.78L247.87,184.96L249.79,127.09L250.43,133.73L251.07,166.93L251.71,157.45L252.35,138.47L252.99,141.32L253.63,203.93L254.27,140.37L254.92,158.39L255.56,114.76L256.2,122.35L258.12,169.78L258.76,129.94L259.4,168.83L260.04,128.99L260.68,169.78L261.32,167.88L261.96,301.63L262.6,213.41L263.24,288.35L264.52,210.57L265.16,220.05L265.8,293.1L266.44,276.02L267.08,300.69L267.73,226.69L268.37,292.15L269.01,145.11L269.65,162.19L270.29,146.06L270.93,141.32L271.57,201.08L273.49,114.76L274.13,175.47L274.77,181.16L275.41,201.08L276.69,141.32L277.33,147.01L277.97,173.57L278.61,128.99L280.53,204.88L281.18,130.88L283.1,180.21L283.74,143.22L285.02,69.23L285.66,40.77L287.58,105.27L288.22,99.58L288.86,31.28L289.5,109.07L290.14,81.56L290.78,92.94L291.42,60.69L292.06,91.04L293.34,104.32L293.99,29.38L295.27,74.92L295.91,91.04L297.19,23.69L297.83,81.56L298.47,50.25L299.11,70.17L299.75,95.79L300.39,59.74L301.67,18L302.31,57.84L302.95,108.12L303.59,47.41L304.23,105.27L304.87,71.12L306.15,27.49L306.8,111.91L308.08,50.25L308.72,67.33L309.36,66.38L310,80.61L311.28,100.53L311.92,89.15L313.2,25.59L313.84,49.3L314.48,23.69L315.12,45.51L316.4,73.97L317.04,56.89L317.68,90.09L318.32,43.61L318.96,96.73L319.6,91.04L320.25,61.64L320.89,35.08L321.53,74.92L322.81,18L323.45,72.07L324.09,76.81L324.73,26.54L326.01,98.63L326.65,36.97L327.29,65.43L327.93,52.15L328.57,55L329.21,90.09L330.49,30.33L331.13,92.94L331.77,98.63L332.41,31.28L333.06,38.87L333.7,29.38L334.34,55L334.98,52.15L335.62,55L336.26,57.84L336.9,99.58L338.18,50.25L338.82,94.84L339.46,43.61L340.1,99.58L341.38,28.43L342.02,99.58L342.66,18.95L343.3,80.61L343.94,106.22L344.58,54.05L345.22,34.13L345.87,57.84L346.51,50.25L347.15,90.09L347.79,45.51L348.43,90.09L349.07,76.81L349.71,112.86L350.35,25.59L350.99,97.68L351.63,102.43L352.27,55L352.91,67.33L353.55,102.43L354.19,99.58L354.83,28.43L355.47,108.12L356.11,49.3L356.75,93.89L357.39,29.38L358.03,30.33L358.67,69.23L359.96,91.04L360.6,80.61L361.24,94.84L361.88,58.79L362.52,94.84L363.16,86.3L363.8,79.66L364.44,92.94L365.08,106.22L365.72,47.41L366.36,55.94L367,44.56L367.64,108.12L368.28,41.72L369.56,110.02L370.2,83.45L370.84,91.04L371.48,65.43L372.13,67.33L372.77,97.68L373.41,84.4L374.05,36.02L374.69,43.61L375.33,91.99L375.97,32.23L376.61,109.07L377.25,36.02L377.89,73.97L378.53,110.96L379.17,55.94L379.81,57.84L380.45,89.15L381.09,53.1L381.73,105.27L382.37,32.23L383.01,102.43L383.65,30.33L384.29,101.48L384.93,47.41L385.58,54.05L386.22,100.53L386.86,58.79L387.5,96.73L388.78,97.68L389.42,93.89L390.06,38.87L390.7,88.2L391.34,94.84L391.98,66.38L392.62,86.3L393.26,55.94L393.9,91.04L394.54,40.77L395.18,84.4L395.82,41.72L396.46,43.61L397.1,92.94L397.74,77.76L398.39,101.48L399.67,91.99L400.31,89.15L400.95,108.12L401.59,35.08L402.87,112.86L403.51,38.87L404.79,52.15L405.43,37.92L406.07,112.86L406.71,66.38L407.35,81.56L407.99,65.43L408.63,112.86L409.27,103.38L409.91,24.64L410.55,93.89L411.2,79.66L411.84,93.89L413.12,21.79L413.76,50.25L414.4,49.3L415.04,30.33L416.32,50.25L416.96,22.74L418.24,72.07L418.88,32.23L419.52,33.18L420.16,85.35L420.8,50.25L421.44,52.15L422.08,26.54L422.72,33.18L423.36,22.74L424.65,103.38L425.29,36.02L425.93,97.68L426.57,47.41L427.85,108.12L428.49,22.74L429.13,105.27L429.77,89.15L430.41,101.48L431.05,91.99L431.69,87.25L432.33,63.53L433.61,166.93L434.25,164.09L434.89,117.6L435.53,202.03L436.17,115.71L436.81,165.03L437.46,188.75L438.1,174.52L438.74,135.63L439.38,139.42L440.02,162.19L440.66,162.19L441.3,130.88L441.94,204.88L442.58,179.26L443.22,189.7L443.86,121.4L445.14,206.77L445.78,123.3L446.42,204.88L447.06,177.37L448.34,44.56L448.98,73.97L449.62,70.17L450.27,19.9L450.91,93.89L451.55,83.45L452.19,70.17L453.47,22.74L454.11,48.36L454.75,25.59L455.39,60.69L456.03,37.92L456.67,101.48L457.31,26.54L457.95,31.28L458.59,41.72L459.23,95.79L459.87,70.17L460.51,42.66L461.15,78.71L461.79,111.91L462.43,91.04L463.72,111.91L464.36,62.58L465,80.61L465.64,70.17L466.92,109.07L467.56,43.61L468.2,31.28L468.84,72.07L470.12,86.3L470.76,58.79L471.4,59.74L472.04,45.51L472.68,72.07L473.32,53.1L473.96,111.91L474.6,18.95L475.88,112.86L476.53,78.71L477.81,64.48" style="vector-effect: non-scaling-stroke; fill: none; stroke: rgb(255, 255, 255); stroke-opacity: 1; stroke-width: 2px; opacity: 1;"/></g><g class="points"/><g class="text"/></g></g></g><g class="overplot"/><path class="xlines-above crisp" d="M0,0" style="fill: none;"/><path class="ylines-above crisp" d="M0,0" style="fill: none;"/><g class="overlines-above"/><g class="xaxislayer-above"/><g class="yaxislayer-above"/><g class="overaxes-above"/></g></g><g class="polarlayer"/><g class="ternarylayer"/><g class="geolayer"/><g class="funnelarealayer"/><g class="pielayer"/><g class="treemaplayer"/><g class="sunburstlayer"/><g class="glimages"/><defs id="topdefs-4e3144"><g class="clips"/></defs><g class="layer-above"><g class="imagelayer"/><g class="shapelayer"><path data-index="0" fill-rule="evenodd" d="M464.29,391.04L560.37,391.04" clip-path="url('#clip4e3144xy')" style="opacity: 1; stroke: rgb(242, 245, 250); stroke-opacity: 1; fill: rgb(0, 0, 0); fill-opacity: 0; stroke-width: 12px;"/><path data-index="1" fill-rule="evenodd" d="M579.5799999999999,315.15L579.5799999999999,220.29" clip-path="url('#clip4e3144xy')" style="opacity: 1; stroke: rgb(242, 245, 250); stroke-opacity: 1; fill: rgb(0, 0, 0); fill-opacity: 0; stroke-width: 12px;"/></g></g><g class="infolayer"><g class="g-gtitle"/><g class="annotation" data-index="0" style="opacity: 1;"><g class="annotation-text-g" transform="rotate(0,602,257.72)"><g class="cursor-pointer" transform="translate(584,247)"><rect class="bg" x="0.5" y="0.5" width="35" height="20" style="stroke-width: 1px; stroke: rgb(0, 0, 0); stroke-opacity: 0; fill: rgb(0, 0, 0); fill-opacity: 0;"/><text class="annotation-text" text-anchor="middle" x="17.90625" y="15" style="font-family: 'Open Sans', verdana, arial, sans-serif; font-size: 12px; fill: rgb(242, 245, 250); fill-opacity: 1; white-space: pre;">10 pA</text></g></g></g><g class="annotation" data-index="1" style="opacity: 1;"><g class="annotation-text-g" transform="rotate(0,515.53,409.5)"><g class="cursor-pointer" transform="translate(493,399)"><rect class="bg" x="0.5" y="0.5" width="44" height="20" style="stroke-width: 1px; stroke: rgb(0, 0, 0); stroke-opacity: 0; fill: rgb(0, 0, 0); fill-opacity: 0;"/><text class="annotation-text" text-anchor="middle" x="22.296875" y="15" style="font-family: 'Open Sans', verdana, arial, sans-serif; font-size: 12px; fill: rgb(242, 245, 250); fill-opacity: 1; white-space: pre;">250 ms</text></g></g></g></g></svg>